<mxfile host="app.diagrams.net" modified="2023-05-11T07:40:38.665Z" agent="Mozilla/5.0 (Windows NT 10.0; Win64; x64; rv:109.0) Gecko/20100101 Firefox/113.0" etag="tcyQWv7WEsXHeDkUkRUk" version="21.2.9" type="device">
  <diagram name="Page-1" id="b6hdijRPlRTOrWSkI9tH">
    <mxGraphModel dx="930" dy="606" grid="1" gridSize="10" guides="1" tooltips="1" connect="1" arrows="1" fold="1" page="1" pageScale="1" pageWidth="827" pageHeight="1169" math="0" shadow="0">
      <root>
        <mxCell id="0" />
        <mxCell id="1" parent="0" />
        <mxCell id="-mVpKU_Xj-J1IGeXIlI4-1" value="" style="rounded=0;whiteSpace=wrap;html=1;fillColor=#dae8fc;strokeColor=#6c8ebf;strokeWidth=3;" parent="1" vertex="1">
          <mxGeometry x="69" y="180" width="690" height="710" as="geometry" />
        </mxCell>
        <mxCell id="-mVpKU_Xj-J1IGeXIlI4-5" value="" style="rounded=0;whiteSpace=wrap;html=1;" parent="1" vertex="1">
          <mxGeometry x="79" y="190" width="670" height="690" as="geometry" />
        </mxCell>
        <mxCell id="-mVpKU_Xj-J1IGeXIlI4-2" value="Operator" style="shape=umlActor;verticalLabelPosition=bottom;verticalAlign=top;html=1;outlineConnect=0;" parent="1" vertex="1">
          <mxGeometry x="119" y="505" width="30" height="60" as="geometry" />
        </mxCell>
        <mxCell id="-mVpKU_Xj-J1IGeXIlI4-6" value="" style="rounded=0;whiteSpace=wrap;html=1;fillColor=#eeeeee;strokeColor=#36393d;strokeWidth=2;" parent="1" vertex="1">
          <mxGeometry x="239" y="220" width="300" height="620" as="geometry" />
        </mxCell>
        <mxCell id="-mVpKU_Xj-J1IGeXIlI4-7" value="&lt;div&gt;take pictures of the&lt;/div&gt;&lt;div&gt;environnement&lt;br&gt;&lt;/div&gt;" style="ellipse;whiteSpace=wrap;html=1;" parent="1" vertex="1">
          <mxGeometry x="299" y="427.5" width="180" height="50" as="geometry" />
        </mxCell>
        <mxCell id="-mVpKU_Xj-J1IGeXIlI4-34" value="&amp;lt;&amp;lt;include&amp;gt;&amp;gt;" style="edgeStyle=orthogonalEdgeStyle;rounded=0;orthogonalLoop=1;jettySize=auto;html=1;entryX=0.5;entryY=1;entryDx=0;entryDy=0;dashed=1;endArrow=block;endFill=1;" parent="1" source="-mVpKU_Xj-J1IGeXIlI4-9" target="-mVpKU_Xj-J1IGeXIlI4-26" edge="1">
          <mxGeometry relative="1" as="geometry" />
        </mxCell>
        <mxCell id="-mVpKU_Xj-J1IGeXIlI4-9" value="control the robot wirelessly" style="ellipse;whiteSpace=wrap;html=1;" parent="1" vertex="1">
          <mxGeometry x="299" y="722.5" width="180" height="50" as="geometry" />
        </mxCell>
        <mxCell id="-mVpKU_Xj-J1IGeXIlI4-42" value="&amp;lt;&amp;lt;include&amp;gt;&amp;gt;" style="edgeStyle=orthogonalEdgeStyle;rounded=0;orthogonalLoop=1;jettySize=auto;html=1;dashed=1;" parent="1" source="-mVpKU_Xj-J1IGeXIlI4-10" target="-mVpKU_Xj-J1IGeXIlI4-7" edge="1">
          <mxGeometry relative="1" as="geometry" />
        </mxCell>
        <mxCell id="-mVpKU_Xj-J1IGeXIlI4-10" value="&lt;div&gt;view the pictures taken by&lt;/div&gt;&lt;div&gt;the robot&lt;br&gt;&lt;/div&gt;" style="ellipse;whiteSpace=wrap;html=1;" parent="1" vertex="1">
          <mxGeometry x="299" y="297.5" width="180" height="50" as="geometry" />
        </mxCell>
        <mxCell id="-mVpKU_Xj-J1IGeXIlI4-15" style="edgeStyle=orthogonalEdgeStyle;rounded=0;orthogonalLoop=1;jettySize=auto;html=1;entryX=0;entryY=0.5;entryDx=0;entryDy=0;endArrow=none;endFill=0;" parent="1" source="-mVpKU_Xj-J1IGeXIlI4-2" target="-mVpKU_Xj-J1IGeXIlI4-7" edge="1">
          <mxGeometry relative="1" as="geometry">
            <Array as="points">
              <mxPoint x="210" y="535" />
              <mxPoint x="210" y="453" />
            </Array>
          </mxGeometry>
        </mxCell>
        <mxCell id="-mVpKU_Xj-J1IGeXIlI4-17" style="edgeStyle=orthogonalEdgeStyle;rounded=0;orthogonalLoop=1;jettySize=auto;html=1;endArrow=none;endFill=0;" parent="1" source="-mVpKU_Xj-J1IGeXIlI4-2" target="-mVpKU_Xj-J1IGeXIlI4-9" edge="1">
          <mxGeometry relative="1" as="geometry">
            <Array as="points">
              <mxPoint x="210" y="535" />
              <mxPoint x="210" y="748" />
            </Array>
          </mxGeometry>
        </mxCell>
        <mxCell id="-mVpKU_Xj-J1IGeXIlI4-18" style="edgeStyle=orthogonalEdgeStyle;rounded=0;orthogonalLoop=1;jettySize=auto;html=1;entryX=0;entryY=0.5;entryDx=0;entryDy=0;endArrow=none;endFill=0;" parent="1" source="-mVpKU_Xj-J1IGeXIlI4-2" target="-mVpKU_Xj-J1IGeXIlI4-10" edge="1">
          <mxGeometry relative="1" as="geometry">
            <Array as="points">
              <mxPoint x="210" y="535" />
              <mxPoint x="210" y="320" />
              <mxPoint x="299" y="320" />
            </Array>
          </mxGeometry>
        </mxCell>
        <mxCell id="-mVpKU_Xj-J1IGeXIlI4-24" value="&lt;b&gt;&lt;i&gt;UC : Robot&lt;/i&gt;&lt;/b&gt;" style="text;html=1;strokeColor=default;fillColor=none;align=center;verticalAlign=middle;whiteSpace=wrap;rounded=0;" parent="1" vertex="1">
          <mxGeometry x="479" y="220" width="60" height="30" as="geometry" />
        </mxCell>
        <mxCell id="-mVpKU_Xj-J1IGeXIlI4-35" style="edgeStyle=orthogonalEdgeStyle;rounded=0;orthogonalLoop=1;jettySize=auto;html=1;entryX=0;entryY=0.5;entryDx=0;entryDy=0;endArrow=none;endFill=0;" parent="1" source="-mVpKU_Xj-J1IGeXIlI4-26" target="-mVpKU_Xj-J1IGeXIlI4-27" edge="1">
          <mxGeometry relative="1" as="geometry">
            <Array as="points">
              <mxPoint x="560" y="613" />
              <mxPoint x="560" y="530" />
            </Array>
          </mxGeometry>
        </mxCell>
        <mxCell id="-mVpKU_Xj-J1IGeXIlI4-36" style="edgeStyle=orthogonalEdgeStyle;rounded=0;orthogonalLoop=1;jettySize=auto;html=1;dashed=1;endArrow=classic;endFill=1;" parent="1" source="-mVpKU_Xj-J1IGeXIlI4-26" target="-mVpKU_Xj-J1IGeXIlI4-7" edge="1">
          <mxGeometry relative="1" as="geometry" />
        </mxCell>
        <mxCell id="-mVpKU_Xj-J1IGeXIlI4-37" value="&amp;lt;&amp;lt;extend&amp;gt;&amp;gt;" style="edgeLabel;html=1;align=center;verticalAlign=middle;resizable=0;points=[];" parent="-mVpKU_Xj-J1IGeXIlI4-36" vertex="1" connectable="0">
          <mxGeometry x="-0.2578" relative="1" as="geometry">
            <mxPoint as="offset" />
          </mxGeometry>
        </mxCell>
        <mxCell id="-mVpKU_Xj-J1IGeXIlI4-26" value="detect potential obstacles" style="ellipse;whiteSpace=wrap;html=1;" parent="1" vertex="1">
          <mxGeometry x="299" y="587.5" width="180" height="50" as="geometry" />
        </mxCell>
        <mxCell id="-mVpKU_Xj-J1IGeXIlI4-27" value="&lt;div style=&quot;font-size: 16px;&quot; align=&quot;center&quot;&gt;&lt;b&gt;&lt;i&gt;obstacles&lt;/i&gt;&lt;/b&gt;&lt;/div&gt;" style="rounded=0;whiteSpace=wrap;html=1;align=center;" parent="1" vertex="1">
          <mxGeometry x="609" y="497.5" width="90" height="65" as="geometry" />
        </mxCell>
        <mxCell id="-mVpKU_Xj-J1IGeXIlI4-30" value="" style="shape=umlActor;verticalLabelPosition=bottom;verticalAlign=top;html=1;outlineConnect=0;" parent="1" vertex="1">
          <mxGeometry x="689" y="497.5" width="10" height="20" as="geometry" />
        </mxCell>
      </root>
    </mxGraphModel>
  </diagram>
</mxfile>
